<svg id="Layer_1" data-name="Layer 1" xmlns="http://www.w3.org/2000/svg" viewBox="0 0 295.17 39.55"><defs><style>.cls-1{fill:#fff;}</style></defs><title>nist_logo_sidestack_rev</title><path class="cls-1" d="M318.81,301.73H321l4,5.13h0v-5.13h2.18v8.39H325L321,305h0v5.14h-2.18Z" transform="translate(-177.58 -300.77)"/><path class="cls-1" d="M334.82,310.12h-2v-.63h0a2,2,0,0,1-1.73.82,3,3,0,0,1,0-6.09,2.33,2.33,0,0,1,1.77.75v-.56h2Zm-4.56-2.85a1.3,1.3,0,0,0,2.6,0,1.3,1.3,0,0,0-2.6,0Z" transform="translate(-177.58 -300.77)"/><path class="cls-1" d="M338.38,310.12h-2v-4h-.66v-1.67h.66V302.7h2v1.71h1.15v1.67h-1.15Z" transform="translate(-177.58 -300.77)"/><path class="cls-1" d="M342.32,302.22a1.14,1.14,0,1,1-1.14-1.14A1.14,1.14,0,0,1,342.32,302.22Zm-.12,7.9h-2v-5.71h2Z" transform="translate(-177.58 -300.77)"/><path class="cls-1" d="M350,307.27c0,1.94-1.6,3-3.44,3s-3.44-1.09-3.44-3,1.6-3.05,3.44-3.05S350,305.32,350,307.27Zm-4.74,0a1.3,1.3,0,0,0,2.6,0,1.3,1.3,0,0,0-2.6,0Z" transform="translate(-177.58 -300.77)"/><path class="cls-1" d="M352.93,305.15h0a2,2,0,0,1,1.83-.92c1.54,0,2.15,1,2.15,2.37v3.53h-2v-2.78c0-.55.09-1.5-.91-1.5-.82,0-1.06.61-1.06,1.32v3h-2v-5.71h2Z" transform="translate(-177.58 -300.77)"/><path class="cls-1" d="M364.51,310.12h-2v-.63h0a2,2,0,0,1-1.73.82,3,3,0,0,1,0-6.09,2.33,2.33,0,0,1,1.77.75v-.56h2Zm-4.56-2.85a1.3,1.3,0,0,0,2.61,0,1.3,1.3,0,0,0-2.61,0Z" transform="translate(-177.58 -300.77)"/><path class="cls-1" d="M367.88,310.12h-2v-9.24h2Z" transform="translate(-177.58 -300.77)"/><path class="cls-1" d="M375.26,310.12h-2.18v-8.39h2.18Z" transform="translate(-177.58 -300.77)"/><path class="cls-1" d="M378.67,305.15h0a2,2,0,0,1,1.83-.92c1.54,0,2.15,1,2.15,2.37v3.53h-2v-2.78c0-.55.09-1.5-.91-1.5-.82,0-1.06.61-1.06,1.32v3h-2v-5.71h2Z" transform="translate(-177.58 -300.77)"/><path class="cls-1" d="M387.78,305.88a2.5,2.5,0,0,0-1.09-.28c-.23,0-.63.1-.63.39s.63.44.91.5c.95.19,1.66.63,1.66,1.69,0,1.5-1.37,2.13-2.69,2.13a4.43,4.43,0,0,1-2.3-.66l.73-1.41a3.26,3.26,0,0,0,1.6.58c.26,0,.63-.12.63-.44s-.63-.47-1.27-.64a1.43,1.43,0,0,1-1.27-1.5c0-1.4,1.27-2,2.52-2a4.54,4.54,0,0,1,1.88.37Z" transform="translate(-177.58 -300.77)"/><path class="cls-1" d="M391.93,310.12h-2v-4h-.66v-1.67h.66V302.7h2v1.71h1.15v1.67h-1.15Z" transform="translate(-177.58 -300.77)"/><path class="cls-1" d="M395.87,302.22a1.14,1.14,0,1,1-1.14-1.14A1.14,1.14,0,0,1,395.87,302.22Zm-.12,7.9h-2v-5.71h2Z" transform="translate(-177.58 -300.77)"/><path class="cls-1" d="M399.3,310.12h-2v-4h-.66v-1.67h.66V302.7h2v1.71h1.15v1.67H399.3Z" transform="translate(-177.58 -300.77)"/><path class="cls-1" d="M403.08,304.41v3.05c0,.72.18,1.24,1,1.24s1-.51,1-1.24v-3.05h2v3.44c0,1.88-1.33,2.46-3,2.46s-3-.58-3-2.46v-3.44Z" transform="translate(-177.58 -300.77)"/><path class="cls-1" d="M410.64,310.12h-2v-4H408v-1.67h.66V302.7h2v1.71h1.15v1.67h-1.15Z" transform="translate(-177.58 -300.77)"/><path class="cls-1" d="M418.3,307.61H414a1.13,1.13,0,0,0,1.27,1.27,1,1,0,0,0,1-.52h1.95a2.77,2.77,0,0,1-2.91,2c-1.89,0-3.31-1.07-3.31-3a3.15,3.15,0,0,1,6.29.12Zm-1.88-1.17a1.22,1.22,0,0,0-2.35,0Z" transform="translate(-177.58 -300.77)"/><path class="cls-1" d="M429.5,307.27c0,1.94-1.6,3-3.44,3s-3.44-1.09-3.44-3,1.6-3.05,3.44-3.05S429.5,305.32,429.5,307.27Zm-4.74,0a1.3,1.3,0,0,0,2.61,0,1.3,1.3,0,0,0-2.61,0Z" transform="translate(-177.58 -300.77)"/><path class="cls-1" d="M432.64,310.12h-2v-4h-.71v-1.67h.71v-.72a2.56,2.56,0,0,1,2.57-2.92,1.81,1.81,0,0,1,.87.2v1.75a1.74,1.74,0,0,0-.71-.19c-.52,0-.7.31-.7,1v.92h1.41v1.67h-1.41Z" transform="translate(-177.58 -300.77)"/><path class="cls-1" d="M323.42,317.32a2.3,2.3,0,0,0-1.45-.55c-.4,0-.94.23-.94.7s.59.68,1,.8l.56.17c1.17.34,2.07.93,2.07,2.29a2.86,2.86,0,0,1-.87,2.26,3.69,3.69,0,0,1-2.38.79,5.17,5.17,0,0,1-2.95-1l.93-1.76a3,3,0,0,0,1.94.87c.51,0,1.06-.25,1.06-.85s-.86-.82-1.32-1c-1.37-.39-2.27-.75-2.27-2.37a2.72,2.72,0,0,1,2.9-2.82,5.75,5.75,0,0,1,2.63.69Z" transform="translate(-177.58 -300.77)"/><path class="cls-1" d="M327.84,323.56h-2v-4h-.66v-1.67h.66v-1.72h2v1.72H329v1.67h-1.15Z" transform="translate(-177.58 -300.77)"/><path class="cls-1" d="M335.88,323.56h-2v-.63h0a2,2,0,0,1-1.73.82,3,3,0,0,1,0-6.09,2.33,2.33,0,0,1,1.77.74v-.56h2Zm-4.56-2.85a1.3,1.3,0,0,0,2.6,0,1.3,1.3,0,0,0-2.6,0Z" transform="translate(-177.58 -300.77)"/><path class="cls-1" d="M339.25,318.58h0a2,2,0,0,1,1.83-.92c1.54,0,2.15,1,2.15,2.37v3.53h-2v-2.78c0-.55.09-1.5-.91-1.5-.82,0-1.06.61-1.06,1.32v3h-2v-5.71h2Z" transform="translate(-177.58 -300.77)"/><path class="cls-1" d="M348.88,322.92h0a2,2,0,0,1-1.72.82,3,3,0,0,1,0-6.09,2.33,2.33,0,0,1,1.77.74v-4.09h2v9.24h-2Zm-2.54-2.21a1.3,1.3,0,0,0,2.61,0,1.3,1.3,0,0,0-2.61,0Z" transform="translate(-177.58 -300.77)"/><path class="cls-1" d="M358.42,323.56h-2v-.63h0a2,2,0,0,1-1.72.82,3,3,0,0,1,0-6.09,2.33,2.33,0,0,1,1.77.74v-.56h2Zm-4.56-2.85a1.3,1.3,0,0,0,2.6,0,1.3,1.3,0,0,0-2.6,0Z" transform="translate(-177.58 -300.77)"/><path class="cls-1" d="M361.79,318.78h0a2,2,0,0,1,1.85-1h.39v1.95a1.65,1.65,0,0,0-.86-.19c-1.12,0-1.4.75-1.4,1.73v2.3h-2v-5.71h2Z" transform="translate(-177.58 -300.77)"/><path class="cls-1" d="M369.11,322.92h0a2,2,0,0,1-1.72.82,3,3,0,0,1,0-6.09,2.33,2.33,0,0,1,1.77.74v-4.09h2v9.24h-2Zm-2.54-2.21a1.3,1.3,0,0,0,2.6,0,1.3,1.3,0,0,0-2.6,0Z" transform="translate(-177.58 -300.77)"/><path class="cls-1" d="M376.17,319.32a2.5,2.5,0,0,0-1.09-.28c-.23,0-.63.1-.63.39s.63.44.91.5c.95.19,1.66.63,1.66,1.69,0,1.5-1.37,2.13-2.69,2.13a4.43,4.43,0,0,1-2.3-.66l.73-1.41a3.27,3.27,0,0,0,1.6.58c.26,0,.63-.12.63-.43s-.63-.47-1.27-.64a1.43,1.43,0,0,1-1.27-1.5c0-1.4,1.27-2,2.52-2a4.53,4.53,0,0,1,1.88.37Z" transform="translate(-177.58 -300.77)"/><path class="cls-1" d="M388.18,323.56h-2v-.63h0a2,2,0,0,1-1.72.82,3,3,0,0,1,0-6.09,2.33,2.33,0,0,1,1.77.74v-.56h2Zm-4.56-2.85a1.3,1.3,0,0,0,2.61,0,1.3,1.3,0,0,0-2.61,0Z" transform="translate(-177.58 -300.77)"/><path class="cls-1" d="M391.55,318.58h0a2,2,0,0,1,1.82-.92c1.54,0,2.15,1,2.15,2.37v3.53h-2v-2.78c0-.55.09-1.5-.91-1.5-.82,0-1.06.61-1.06,1.32v3h-2v-5.71h2Z" transform="translate(-177.58 -300.77)"/><path class="cls-1" d="M401.18,322.92h0a2,2,0,0,1-1.73.82,3,3,0,0,1,0-6.09,2.33,2.33,0,0,1,1.77.74v-4.09h2v9.24h-2Zm-2.54-2.21a1.3,1.3,0,0,0,2.6,0,1.3,1.3,0,0,0-2.6,0Z" transform="translate(-177.58 -300.77)"/><path class="cls-1" d="M411.68,323.56H409.5V317h-1.8v-1.85h5.79V317h-1.8Z" transform="translate(-177.58 -300.77)"/><path class="cls-1" d="M419.27,321H415a1.13,1.13,0,0,0,1.27,1.27,1,1,0,0,0,1-.52h1.95a2.77,2.77,0,0,1-2.9,2c-1.89,0-3.31-1.07-3.31-3a3.15,3.15,0,0,1,6.29.12Zm-1.88-1.17a1.22,1.22,0,0,0-2.35,0Z" transform="translate(-177.58 -300.77)"/><path class="cls-1" d="M424.31,319.71a1.79,1.79,0,0,0-1-.4,1.37,1.37,0,0,0-1.39,1.39,1.36,1.36,0,0,0,1.43,1.4,1.56,1.56,0,0,0,1-.39v1.71a3.16,3.16,0,0,1-1.42.32,3,3,0,0,1-3.11-3,3.06,3.06,0,0,1,3.19-3.1,2.77,2.77,0,0,1,1.34.33Z" transform="translate(-177.58 -300.77)"/><path class="cls-1" d="M427.6,314.32v4.25h0a2.11,2.11,0,0,1,1.83-.91c1.45,0,2.15,1,2.15,2.4v3.5h-2v-2.93c0-.67-.1-1.36-.91-1.36s-1.06.69-1.06,1.36v2.93h-2v-9.24Z" transform="translate(-177.58 -300.77)"/><path class="cls-1" d="M435,318.58h0a2,2,0,0,1,1.83-.92c1.54,0,2.15,1,2.15,2.37v3.53h-2v-2.78c0-.55.09-1.5-.91-1.5-.82,0-1.06.61-1.06,1.32v3h-2v-5.71h2Z" transform="translate(-177.58 -300.77)"/><path class="cls-1" d="M446.74,320.71c0,1.94-1.6,3-3.44,3s-3.44-1.09-3.44-3,1.6-3,3.44-3S446.74,318.76,446.74,320.71Zm-4.74,0a1.3,1.3,0,0,0,2.6,0,1.3,1.3,0,0,0-2.6,0Z" transform="translate(-177.58 -300.77)"/><path class="cls-1" d="M449.68,323.56h-2v-9.24h2Z" transform="translate(-177.58 -300.77)"/><path class="cls-1" d="M457.48,320.71c0,1.94-1.6,3-3.44,3s-3.44-1.09-3.44-3,1.6-3,3.44-3S457.48,318.76,457.48,320.71Zm-4.74,0a1.3,1.3,0,0,0,2.61,0,1.3,1.3,0,0,0-2.61,0Z" transform="translate(-177.58 -300.77)"/><path class="cls-1" d="M464.66,323c0,2.43-1.2,3.41-3.31,3.41-1.31,0-3.07-.68-3.25-2.18h2.27a.7.7,0,0,0,.38.43,1.33,1.33,0,0,0,.58.13c1.09,0,1.3-.71,1.3-1.64v-.27a2.37,2.37,0,0,1-1.81.78,2.78,2.78,0,0,1-2.82-2.92,3,3,0,0,1,2.93-3.09,2,2,0,0,1,1.68.79h0v-.6h2Zm-4.57-2.34a1.3,1.3,0,0,0,2.61,0,1.3,1.3,0,0,0-2.61,0Z" transform="translate(-177.58 -300.77)"/><path class="cls-1" d="M465.09,317.85h2.34l1.53,2.93,1.49-2.93h2.3l-4.57,8.56H465.9l1.95-3.63Z" transform="translate(-177.58 -300.77)"/><path class="cls-1" d="M319.86,334a3.1,3.1,0,0,0,.37,1.87,2.17,2.17,0,0,0,1.69.8,2.22,2.22,0,0,0,1.65-.75A2.89,2.89,0,0,0,324,334v-5h.93v5.25a3,3,0,0,1-.73,2.33,3.08,3.08,0,0,1-2.26,1,3.14,3.14,0,0,1-2.17-.86,3,3,0,0,1-.82-2.43V329h.94Z" transform="translate(-177.58 -300.77)"/><path class="cls-1" d="M328.06,336.89a.62.62,0,1,1-1.25,0,.62.62,0,0,1,1.25,0Z" transform="translate(-177.58 -300.77)"/><path class="cls-1" d="M333.8,330.62a1.54,1.54,0,0,0-1.45-.91A1.33,1.33,0,0,0,331,331c0,.72.75,1.06,1.31,1.31l.56.24c1.09.48,2,1,2,2.36a2.65,2.65,0,0,1-5.25.42l.91-.26a1.73,1.73,0,0,0,1.68,1.56,1.69,1.69,0,0,0,1.72-1.64c0-1-.77-1.31-1.55-1.67l-.51-.22c-1-.45-1.83-.95-1.83-2.15a2.2,2.2,0,0,1,2.35-2.14,2.41,2.41,0,0,1,2.17,1.3Z" transform="translate(-177.58 -300.77)"/><path class="cls-1" d="M337.71,336.89a.62.62,0,1,1-1.25,0,.62.62,0,0,1,1.25,0Z" transform="translate(-177.58 -300.77)"/><path class="cls-1" d="M343.08,329h1.58a4.58,4.58,0,0,1,3.27,1,4.31,4.31,0,0,1,0,6.32,4.46,4.46,0,0,1-3.32,1.06h-1.56Zm1.62,7.53a3.53,3.53,0,0,0,2.65-.87,3.43,3.43,0,0,0,0-5,3.6,3.6,0,0,0-2.6-.81H344v6.66Z" transform="translate(-177.58 -300.77)"/><path class="cls-1" d="M351.07,335a1.69,1.69,0,0,0,1.71,1.75,1.79,1.79,0,0,0,1.59-1.08l.76.43a2.64,2.64,0,0,1-2.42,1.47,2.53,2.53,0,0,1-2.56-2.69,2.54,2.54,0,1,1,5,.12Zm3.17-.76a1.6,1.6,0,0,0-1.54-1.37,1.66,1.66,0,0,0-1.59,1.37Z" transform="translate(-177.58 -300.77)"/><path class="cls-1" d="M357.25,332.89h0a2.2,2.2,0,0,1,1.8-.89,2.6,2.6,0,0,1,2.5,2.77,2.54,2.54,0,0,1-2.52,2.75,2.21,2.21,0,0,1-1.79-.88h0v3.67h-.89v-8.17h.89Zm0,1.81a1.81,1.81,0,0,0,1.72,2,1.78,1.78,0,0,0,1.75-2,1.75,1.75,0,0,0-1.76-1.89A1.77,1.77,0,0,0,357.21,334.71Z" transform="translate(-177.58 -300.77)"/><path class="cls-1" d="M367.6,337.38h-.89v-.72h0a2.2,2.2,0,0,1-1.8.87,2.77,2.77,0,0,1,0-5.52,2.26,2.26,0,0,1,1.79.89h0v-.75h.89Zm-4.31-2.67a1.81,1.81,0,0,0,1.71,2,1.78,1.78,0,0,0,1.75-2,1.75,1.75,0,0,0-1.76-1.89A1.77,1.77,0,0,0,363.29,334.71Z" transform="translate(-177.58 -300.77)"/><path class="cls-1" d="M370.1,332.71h0a1.34,1.34,0,0,1,1.16-.71,1.57,1.57,0,0,1,.8.25l-.42.81a.87.87,0,0,0-.54-.23c-1,0-1,1.26-1,1.94v2.62h-.89v-5.23h.89Z" transform="translate(-177.58 -300.77)"/><path class="cls-1" d="M374.14,337.38h-.89V333h-.55v-.83h.55v-1.88h.89v1.88h.94V333h-.94Z" transform="translate(-177.58 -300.77)"/><path class="cls-1" d="M376.77,332.71h0A1.47,1.47,0,0,1,378,332a1.61,1.61,0,0,1,1.45.87,1.74,1.74,0,0,1,1.57-.87c1.33,0,1.67,1.09,1.67,2.19v3.18h-.89v-3c0-.68,0-1.51-1-1.51s-1.14,1-1.14,1.78v2.77h-.89v-3c0-.65-.08-1.58-.94-1.58-1,0-1.16,1.06-1.16,1.85v2.71h-.89v-5.23h.89Z" transform="translate(-177.58 -300.77)"/><path class="cls-1" d="M384.87,335a1.69,1.69,0,0,0,1.71,1.75,1.79,1.79,0,0,0,1.59-1.08l.76.43a2.64,2.64,0,0,1-2.42,1.47,2.53,2.53,0,0,1-2.56-2.69,2.54,2.54,0,1,1,5,.12Zm3.17-.76a1.59,1.59,0,0,0-1.54-1.37,1.65,1.65,0,0,0-1.59,1.37Z" transform="translate(-177.58 -300.77)"/><path class="cls-1" d="M391.09,332.78h0a1.76,1.76,0,0,1,1.49-.78c1.45,0,1.78,1,1.78,2.27v3.11h-.89v-3c0-.85-.07-1.6-1.1-1.6-1.23,0-1.3,1.14-1.3,2.07v2.48h-.89v-5.23h.89Z" transform="translate(-177.58 -300.77)"/><path class="cls-1" d="M397,337.38h-.89V333h-.55v-.83h.55v-1.88H397v1.88H398V333H397Z" transform="translate(-177.58 -300.77)"/><path class="cls-1" d="M401.71,334.77a2.75,2.75,0,1,1,2.75,2.75A2.75,2.75,0,0,1,401.71,334.77Zm.89,0a1.86,1.86,0,1,0,1.86-1.94A1.85,1.85,0,0,0,402.6,334.76Z" transform="translate(-177.58 -300.77)"/><path class="cls-1" d="M409.41,337.38h-.89V333H408v-.83h.49v-2.08a2.69,2.69,0,0,1,.23-1.36,1.52,1.52,0,0,1,1.35-.66,2.1,2.1,0,0,1,.63.11v.9a1.84,1.84,0,0,0-.6-.12c-.72,0-.72.51-.72,1.44v1.77h1.32V333h-1.32Z" transform="translate(-177.58 -300.77)"/><path class="cls-1" d="M421.32,330.82a3.59,3.59,0,0,0-2.56-1.11,3.47,3.47,0,0,0,0,6.95,3.68,3.68,0,0,0,2.54-1.11v1.16a4.32,4.32,0,0,1-2.5.82,4.34,4.34,0,1,1,0-8.68,4,4,0,0,1,2.5.82Z" transform="translate(-177.58 -300.77)"/><path class="cls-1" d="M422.43,334.77a2.75,2.75,0,1,1,2.75,2.75A2.75,2.75,0,0,1,422.43,334.77Zm.89,0a1.86,1.86,0,1,0,1.86-1.94A1.85,1.85,0,0,0,423.32,334.76Z" transform="translate(-177.58 -300.77)"/><path class="cls-1" d="M430,332.71h0a1.47,1.47,0,0,1,1.26-.71,1.61,1.61,0,0,1,1.45.87,1.74,1.74,0,0,1,1.57-.87c1.34,0,1.67,1.09,1.67,2.19v3.18h-.89v-3c0-.68,0-1.51-1-1.51s-1.14,1-1.14,1.78v2.77h-.89v-3c0-.65-.08-1.58-.93-1.58-1,0-1.16,1.06-1.16,1.85v2.71h-.89v-5.23H430Z" transform="translate(-177.58 -300.77)"/><path class="cls-1" d="M438.59,332.71h0a1.48,1.48,0,0,1,1.26-.71,1.61,1.61,0,0,1,1.45.87,1.74,1.74,0,0,1,1.57-.87c1.34,0,1.67,1.09,1.67,2.19v3.18h-.89v-3c0-.68,0-1.51-1-1.51s-1.14,1-1.14,1.78v2.77h-.89v-3c0-.65-.08-1.58-.94-1.58-1,0-1.16,1.06-1.16,1.85v2.71h-.89v-5.23h.89Z" transform="translate(-177.58 -300.77)"/><path class="cls-1" d="M446.7,335a1.69,1.69,0,0,0,1.71,1.75,1.79,1.79,0,0,0,1.59-1.08l.76.43a2.64,2.64,0,0,1-2.42,1.47,2.53,2.53,0,0,1-2.56-2.69,2.54,2.54,0,1,1,5,.12Zm3.17-.76a1.6,1.6,0,0,0-1.54-1.37,1.65,1.65,0,0,0-1.59,1.37Z" transform="translate(-177.58 -300.77)"/><path class="cls-1" d="M452.88,332.71h0a1.34,1.34,0,0,1,1.16-.71,1.56,1.56,0,0,1,.8.25l-.42.81a.87.87,0,0,0-.54-.23c-1,0-1,1.26-1,1.94v2.62H452v-5.23h.89Z" transform="translate(-177.58 -300.77)"/><path class="cls-1" d="M459.65,333.7h0a2,2,0,0,0-1.63-.88,1.87,1.87,0,0,0-1.85,1.94,1.83,1.83,0,0,0,1.8,1.94,2,2,0,0,0,1.71-.9h0V337a2.86,2.86,0,0,1-1.66.53,2.71,2.71,0,0,1-2.78-2.76A2.76,2.76,0,0,1,458,332a2.81,2.81,0,0,1,1.62.52Z" transform="translate(-177.58 -300.77)"/><path class="cls-1" d="M461.51,335a1.69,1.69,0,0,0,1.71,1.75,1.79,1.79,0,0,0,1.59-1.08l.76.43a2.64,2.64,0,0,1-2.42,1.47,2.53,2.53,0,0,1-2.56-2.69,2.54,2.54,0,1,1,5,.12Zm3.17-.76a1.6,1.6,0,0,0-1.54-1.37,1.65,1.65,0,0,0-1.59,1.37Z" transform="translate(-177.58 -300.77)"/><path class="cls-1" d="M185,337.42h-7.38V308.91a7.88,7.88,0,0,1,5.4-7.18,8.44,8.44,0,0,1,8.13,1.57l24.34,26.32c1.22.76,1.72,0,1.71-.75V301.73h7.45V330a8,8,0,0,1-4.85,6.56c-2.9,1.13-6.08,1.12-9.84-2.05L187.15,309.8c-.6-.64-2.16-.72-2.19.54v27.07Z" transform="translate(-177.58 -300.77)"/><path class="cls-1" d="M229.4,301.73h7.45V327.3c0,2.72,2.25,2.72,4.51,2.73h33.09a3.44,3.44,0,0,0,2.94-3.28,3.54,3.54,0,0,0-3.08-3.42H252.78c-3.7.13-11.39-3.28-11.42-10.53,0-8.85,7.29-10.84,10.6-11.07h60.91v7.52H297.63v28.17h-7.38V309.25H252.92c-3.55-.31-6.12,5.82-.27,6.7h22.9c3.44,0,9.14,3,9.16,10.39s-4.44,11.08-9.16,11.08H241.71c-5.59,0-7.59-1.26-9.57-3.14s-2.14-2.83-2.73-6.57v-26Z" transform="translate(-177.58 -300.77)"/></svg>