<?xml version="1.0" encoding="utf-8"?>
<!-- Generator: Adobe Illustrator 21.1.0, SVG Export Plug-In . SVG Version: 6.00 Build 0)  -->
<svg version="1.1" id="Layer_1" xmlns="http://www.w3.org/2000/svg" xmlns:xlink="http://www.w3.org/1999/xlink" x="0px" y="0px"
	 viewBox="0 0 180 90" style="enable-background:new 0 0 180 90;" xml:space="preserve">
<style type="text/css">
	.st0{fill:#FFFFFF;}
</style>
<g>
	<path class="st0" d="M29.2,41.3h2.3l4.2,5.5h0v-5.5h2.3v8.9h-2.3l-4.2-5.5h0v5.5h-2.3V41.3z"/>
	<path class="st0" d="M46.2,50.2H44v-0.7h0c-0.4,0.6-1.1,0.9-1.8,0.9c-1.8,0-3.1-1.5-3.1-3.2c0-1.7,1.2-3.2,3-3.2
		c0.7,0,1.4,0.3,1.9,0.8v-0.6h2.2V50.2z M41.3,47.2c0,0.8,0.5,1.4,1.4,1.4c0.9,0,1.4-0.6,1.4-1.4c0-0.7-0.5-1.4-1.4-1.4
		C41.8,45.8,41.3,46.4,41.3,47.2z"/>
	<path class="st0" d="M50,50.2h-2.2v-4.3h-0.7v-1.8h0.7v-1.8H50v1.8h1.2v1.8H50V50.2z"/>
	<path class="st0" d="M54.1,41.8c0,0.7-0.5,1.2-1.2,1.2c-0.7,0-1.2-0.5-1.2-1.2c0-0.7,0.5-1.2,1.2-1.2
		C53.6,40.6,54.1,41.1,54.1,41.8z M54,50.2h-2.2v-6.1H54V50.2z"/>
	<path class="st0" d="M62.3,47.2c0,2.1-1.7,3.2-3.7,3.2c-1.9,0-3.7-1.2-3.7-3.2c0-2.1,1.7-3.2,3.7-3.2
		C60.6,43.9,62.3,45.1,62.3,47.2z M57.2,47.2c0,0.8,0.5,1.4,1.4,1.4c0.9,0,1.4-0.6,1.4-1.4c0-0.7-0.5-1.4-1.4-1.4
		C57.8,45.8,57.2,46.4,57.2,47.2z"/>
	<path class="st0" d="M65.4,44.9L65.4,44.9c0.5-0.7,1.1-1,2-1c1.6,0,2.3,1,2.3,2.5v3.7h-2.2v-3c0-0.6,0.1-1.6-1-1.6
		c-0.9,0-1.1,0.7-1.1,1.4v3.1h-2.2v-6.1h2.2V44.9z"/>
	<path class="st0" d="M77.7,50.2h-2.2v-0.7h0c-0.4,0.6-1.1,0.9-1.8,0.9c-1.8,0-3.1-1.5-3.1-3.2c0-1.7,1.2-3.2,3-3.2
		c0.7,0,1.4,0.3,1.9,0.8v-0.6h2.2V50.2z M72.9,47.2c0,0.8,0.5,1.4,1.4,1.4c0.9,0,1.4-0.6,1.4-1.4c0-0.7-0.5-1.4-1.4-1.4
		C73.4,45.8,72.9,46.4,72.9,47.2z"/>
	<path class="st0" d="M81.3,50.2h-2.2v-9.8h2.2V50.2z"/>
	<path class="st0" d="M89.1,50.2h-2.3v-8.9h2.3V50.2z"/>
	<path class="st0" d="M92.7,44.9L92.7,44.9c0.5-0.7,1.1-1,2-1c1.6,0,2.3,1,2.3,2.5v3.7h-2.2v-3c0-0.6,0.1-1.6-1-1.6
		c-0.9,0-1.1,0.7-1.1,1.4v3.1h-2.2v-6.1h2.2V44.9z"/>
	<path class="st0" d="M102.4,45.7c-0.3-0.2-0.8-0.3-1.2-0.3c-0.2,0-0.7,0.1-0.7,0.4c0,0.4,0.7,0.5,1,0.5c1,0.2,1.8,0.7,1.8,1.8
		c0,1.6-1.5,2.3-2.9,2.3c-0.9,0-1.7-0.2-2.4-0.7l0.8-1.5c0.4,0.3,1.2,0.6,1.7,0.6c0.3,0,0.7-0.1,0.7-0.5c0-0.5-0.7-0.5-1.3-0.7
		c-0.7-0.2-1.3-0.5-1.3-1.6c0-1.5,1.3-2.2,2.7-2.2c0.7,0,1.4,0.1,2,0.4L102.4,45.7z"/>
	<path class="st0" d="M106.8,50.2h-2.2v-4.3H104v-1.8h0.7v-1.8h2.2v1.8h1.2v1.8h-1.2V50.2z"/>
	<path class="st0" d="M111,41.8c0,0.7-0.5,1.2-1.2,1.2c-0.7,0-1.2-0.5-1.2-1.2c0-0.7,0.5-1.2,1.2-1.2C110.5,40.6,111,41.1,111,41.8z
		 M110.9,50.2h-2.2v-6.1h2.2V50.2z"/>
	<path class="st0" d="M114.6,50.2h-2.2v-4.3h-0.7v-1.8h0.7v-1.8h2.2v1.8h1.2v1.8h-1.2V50.2z"/>
	<path class="st0" d="M118.7,44.1v3.2c0,0.8,0.2,1.3,1.1,1.3c0.9,0,1.1-0.5,1.1-1.3v-3.2h2.2v3.7c0,2-1.4,2.6-3.2,2.6
		c-1.8,0-3.2-0.6-3.2-2.6v-3.7H118.7z"/>
	<path class="st0" d="M126.7,50.2h-2.2v-4.3h-0.7v-1.8h0.7v-1.8h2.2v1.8h1.2v1.8h-1.2V50.2z"/>
	<path class="st0" d="M134.8,47.5h-4.5c0,0.9,0.5,1.3,1.3,1.3c0.5,0,0.8-0.2,1-0.6h2.1c-0.3,1.4-1.7,2.1-3.1,2.1
		c-2,0-3.5-1.1-3.5-3.2c0-2,1.4-3.2,3.4-3.2c2.1,0,3.3,1.3,3.3,3.4V47.5z M132.8,46.3c-0.1-0.6-0.6-1-1.2-1c-0.6,0-1.1,0.3-1.3,1
		H132.8z"/>
	<path class="st0" d="M146.7,47.2c0,2.1-1.7,3.2-3.7,3.2c-1.9,0-3.7-1.2-3.7-3.2c0-2.1,1.7-3.2,3.7-3.2
		C145,43.9,146.7,45.1,146.7,47.2z M141.7,47.2c0,0.8,0.5,1.4,1.4,1.4s1.4-0.6,1.4-1.4c0-0.7-0.5-1.4-1.4-1.4S141.7,46.4,141.7,47.2
		z"/>
	<path class="st0" d="M150.1,50.2h-2.2v-4.3h-0.8v-1.8h0.8v-0.8c0-0.8,0-1.5,0.6-2.1c0.5-0.6,1.3-1,2.1-1c0.3,0,0.6,0.1,0.9,0.2v1.9
		c-0.2-0.1-0.5-0.2-0.8-0.2c-0.6,0-0.7,0.3-0.7,1v1h1.5v1.8h-1.5V50.2z"/>
	<path class="st0" d="M13.6,57.8c-0.4-0.4-1-0.6-1.5-0.6c-0.4,0-1,0.2-1,0.7c0,0.5,0.6,0.7,1,0.9l0.6,0.2c1.2,0.4,2.2,1,2.2,2.4
		c0,0.9-0.2,1.8-0.9,2.4c-0.7,0.6-1.6,0.8-2.5,0.8c-1.1,0-2.2-0.4-3.1-1l1-1.9c0.6,0.5,1.3,0.9,2.1,0.9c0.5,0,1.1-0.3,1.1-0.9
		c0-0.7-0.9-0.9-1.4-1c-1.5-0.4-2.4-0.8-2.4-2.5c0-1.8,1.3-3,3.1-3c0.9,0,2,0.3,2.8,0.7L13.6,57.8z"/>
	<path class="st0" d="M18.3,64.4h-2.2v-4.3h-0.7v-1.8h0.7v-1.8h2.2v1.8h1.2v1.8h-1.2V64.4z"/>
	<path class="st0" d="M26.9,64.4h-2.2v-0.7h0c-0.4,0.6-1.1,0.9-1.8,0.9c-1.8,0-3.1-1.5-3.1-3.2c0-1.7,1.2-3.2,3-3.2
		c0.7,0,1.4,0.3,1.9,0.8v-0.6h2.2V64.4z M22,61.4c0,0.8,0.5,1.4,1.4,1.4c0.9,0,1.4-0.6,1.4-1.4c0-0.7-0.5-1.4-1.4-1.4
		C22.5,60,22,60.7,22,61.4z"/>
	<path class="st0" d="M30.4,59.2L30.4,59.2c0.5-0.7,1.1-1,2-1c1.6,0,2.3,1,2.3,2.5v3.7h-2.2v-3c0-0.6,0.1-1.6-1-1.6
		c-0.9,0-1.1,0.6-1.1,1.4v3.1h-2.2v-6.1h2.2V59.2z"/>
	<path class="st0" d="M40.7,63.8L40.7,63.8c-0.4,0.6-1.1,0.9-1.9,0.9c-1.8,0-3.1-1.5-3.1-3.2c0-1.7,1.2-3.2,3-3.2
		c0.7,0,1.4,0.3,1.9,0.8v-4.3h2.2v9.8h-2.2V63.8z M38,61.4c0,0.8,0.5,1.4,1.4,1.4c0.9,0,1.4-0.6,1.4-1.4c0-0.7-0.5-1.4-1.4-1.4
		C38.5,60,38,60.7,38,61.4z"/>
	<path class="st0" d="M50.8,64.4h-2.2v-0.7h0c-0.4,0.6-1.1,0.9-1.8,0.9c-1.8,0-3.1-1.5-3.1-3.2c0-1.7,1.2-3.2,3-3.2
		c0.7,0,1.4,0.3,1.9,0.8v-0.6h2.2V64.4z M46,61.4c0,0.8,0.5,1.4,1.4,1.4c0.9,0,1.4-0.6,1.4-1.4c0-0.7-0.5-1.4-1.4-1.4
		C46.5,60,46,60.7,46,61.4z"/>
	<path class="st0" d="M54.4,59.4L54.4,59.4c0.4-0.7,1.1-1.1,2-1.1h0.4v2.1c-0.3-0.2-0.6-0.2-0.9-0.2c-1.2,0-1.5,0.8-1.5,1.8v2.4
		h-2.2v-6.1h2.2V59.4z"/>
	<path class="st0" d="M62.2,63.8L62.2,63.8c-0.4,0.6-1.1,0.9-1.9,0.9c-1.8,0-3.1-1.5-3.1-3.2c0-1.7,1.2-3.2,3-3.2
		c0.7,0,1.4,0.3,1.9,0.8v-4.3h2.2v9.8h-2.2V63.8z M59.5,61.4c0,0.8,0.5,1.4,1.4,1.4c0.9,0,1.4-0.6,1.4-1.4c0-0.7-0.5-1.4-1.4-1.4
		C60,60,59.5,60.7,59.5,61.4z"/>
	<path class="st0" d="M69.7,59.9c-0.3-0.2-0.8-0.3-1.2-0.3c-0.2,0-0.7,0.1-0.7,0.4c0,0.4,0.7,0.5,1,0.5c1,0.2,1.8,0.7,1.8,1.8
		c0,1.6-1.5,2.3-2.9,2.3c-0.9,0-1.7-0.2-2.4-0.7l0.8-1.5c0.4,0.3,1.2,0.6,1.7,0.6c0.3,0,0.7-0.1,0.7-0.5c0-0.5-0.7-0.5-1.3-0.7
		c-0.7-0.2-1.3-0.5-1.3-1.6c0-1.5,1.3-2.2,2.7-2.2c0.7,0,1.4,0.1,2,0.4L69.7,59.9z"/>
	<path class="st0" d="M82.4,64.4h-2.2v-0.7h0c-0.4,0.6-1.1,0.9-1.8,0.9c-1.8,0-3.1-1.5-3.1-3.2c0-1.7,1.2-3.2,3-3.2
		c0.7,0,1.4,0.3,1.9,0.8v-0.6h2.2V64.4z M77.6,61.4c0,0.8,0.5,1.4,1.4,1.4c0.9,0,1.4-0.6,1.4-1.4c0-0.7-0.5-1.4-1.4-1.4
		C78.1,60,77.6,60.7,77.6,61.4z"/>
	<path class="st0" d="M86,59.2L86,59.2c0.5-0.7,1.1-1,2-1c1.6,0,2.3,1,2.3,2.5v3.7h-2.2v-3c0-0.6,0.1-1.6-1-1.6
		c-0.9,0-1.1,0.6-1.1,1.4v3.1h-2.2v-6.1H86V59.2z"/>
	<path class="st0" d="M96.2,63.8L96.2,63.8c-0.4,0.6-1.1,0.9-1.9,0.9c-1.8,0-3.1-1.5-3.1-3.2c0-1.7,1.2-3.2,3-3.2
		c0.7,0,1.4,0.3,1.9,0.8v-4.3h2.2v9.8h-2.2V63.8z M93.5,61.4c0,0.8,0.5,1.4,1.4,1.4c0.9,0,1.4-0.6,1.4-1.4c0-0.7-0.5-1.4-1.4-1.4
		C94,60,93.5,60.7,93.5,61.4z"/>
	<path class="st0" d="M107.4,64.4H105v-7h-1.9v-2h6.1v2h-1.9V64.4z"/>
	<path class="st0" d="M115.4,61.8h-4.5c0,0.9,0.5,1.3,1.3,1.3c0.5,0,0.8-0.2,1-0.6h2.1c-0.3,1.4-1.7,2.1-3.1,2.1
		c-2,0-3.5-1.1-3.5-3.2c0-2,1.4-3.2,3.4-3.2c2.1,0,3.3,1.3,3.3,3.4V61.8z M113.4,60.5c-0.1-0.6-0.6-1-1.2-1c-0.6,0-1.1,0.3-1.3,1
		H113.4z"/>
	<path class="st0" d="M120.8,60.4c-0.3-0.2-0.7-0.4-1.1-0.4c-0.8,0-1.5,0.6-1.5,1.5c0,0.9,0.6,1.5,1.5,1.5c0.4,0,0.8-0.2,1.1-0.4
		v1.8c-0.5,0.2-1,0.3-1.5,0.3c-1.8,0-3.3-1.3-3.3-3.2c0-2,1.5-3.3,3.4-3.3c0.5,0,1,0.1,1.4,0.4V60.4z"/>
	<path class="st0" d="M124.3,54.6v4.5h0c0.5-0.7,1.1-1,1.9-1c1.5,0,2.3,1,2.3,2.6v3.7h-2.2v-3.1c0-0.7-0.1-1.4-1-1.4
		c-0.9,0-1.1,0.7-1.1,1.4v3.1h-2.2v-9.8H124.3z"/>
	<path class="st0" d="M132.1,59.2L132.1,59.2c0.5-0.7,1.1-1,2-1c1.6,0,2.3,1,2.3,2.5v3.7h-2.2v-3c0-0.6,0.1-1.6-1-1.6
		c-0.9,0-1.1,0.6-1.1,1.4v3.1h-2.2v-6.1h2.2V59.2z"/>
	<path class="st0" d="M144.6,61.4c0,2.1-1.7,3.2-3.7,3.2c-1.9,0-3.7-1.2-3.7-3.2c0-2.1,1.7-3.2,3.7-3.2
		C142.9,58.2,144.6,59.4,144.6,61.4z M139.6,61.4c0,0.8,0.5,1.4,1.4,1.4c0.9,0,1.4-0.6,1.4-1.4c0-0.7-0.5-1.4-1.4-1.4
		C140.1,60,139.6,60.7,139.6,61.4z"/>
	<path class="st0" d="M147.7,64.4h-2.2v-9.8h2.2V64.4z"/>
	<path class="st0" d="M156,61.4c0,2.1-1.7,3.2-3.7,3.2c-1.9,0-3.7-1.2-3.7-3.2c0-2.1,1.7-3.2,3.7-3.2C154.3,58.2,156,59.4,156,61.4z
		 M151,61.4c0,0.8,0.5,1.4,1.4,1.4c0.9,0,1.4-0.6,1.4-1.4c0-0.7-0.5-1.4-1.4-1.4C151.5,60,151,60.7,151,61.4z"/>
	<path class="st0" d="M163.6,63.9c0,2.6-1.3,3.6-3.5,3.6c-1.4,0-3.3-0.7-3.5-2.3h2.4c0.1,0.2,0.2,0.4,0.4,0.5
		c0.2,0.1,0.4,0.1,0.6,0.1c1.2,0,1.4-0.8,1.4-1.7v-0.3c-0.6,0.6-1.1,0.8-1.9,0.8c-1.8,0-3-1.3-3-3.1c0-1.8,1.3-3.3,3.1-3.3
		c0.7,0,1.4,0.2,1.8,0.8h0v-0.6h2.2V63.9z M158.8,61.4c0,0.8,0.5,1.4,1.4,1.4c0.9,0,1.4-0.6,1.4-1.4c0-0.7-0.5-1.4-1.4-1.4
		C159.3,60,158.8,60.6,158.8,61.4z"/>
	<path class="st0" d="M164.1,58.4h2.5l1.6,3.1l1.6-3.1h2.4l-4.9,9.1H165l2.1-3.9L164.1,58.4z"/>
	<path class="st0" d="M13.3,75.5c0,0.7,0,1.4,0.4,2c0.4,0.5,1.1,0.9,1.8,0.9c0.6,0,1.3-0.3,1.8-0.8c0.5-0.6,0.4-1.3,0.4-2v-5.3h1
		v5.6c0,1-0.1,1.7-0.8,2.5c-0.6,0.7-1.5,1-2.4,1c-0.8,0-1.7-0.3-2.3-0.9c-0.8-0.7-0.9-1.6-0.9-2.6v-5.6h1V75.5z"/>
	<path class="st0" d="M22,78.6c0,0.4-0.3,0.7-0.7,0.7c-0.4,0-0.7-0.3-0.7-0.7c0-0.4,0.3-0.6,0.7-0.6C21.7,78,22,78.3,22,78.6z"/>
	<path class="st0" d="M28.1,71.9c-0.4-0.6-0.8-1-1.5-1c-0.8,0-1.5,0.6-1.5,1.4c0,0.8,0.8,1.1,1.4,1.4l0.6,0.3
		c1.2,0.5,2.1,1.1,2.1,2.5c0,1.6-1.3,2.8-2.8,2.8c-1.4,0-2.5-0.9-2.8-2.3l1-0.3c0.1,0.9,0.8,1.7,1.8,1.7c1,0,1.8-0.7,1.8-1.7
		c0-1-0.8-1.4-1.6-1.8l-0.5-0.2c-1-0.5-1.9-1-1.9-2.3c0-1.4,1.2-2.3,2.5-2.3c1,0,1.8,0.5,2.3,1.4L28.1,71.9z"/>
	<path class="st0" d="M32.3,78.6c0,0.4-0.3,0.7-0.7,0.7c-0.4,0-0.7-0.3-0.7-0.7c0-0.4,0.3-0.6,0.7-0.6C32,78,32.3,78.3,32.3,78.6z"
		/>
	<path class="st0" d="M38,70.2h1.7c1.3,0,2.4,0.2,3.5,1.1c1,0.9,1.5,2.1,1.5,3.4c0,1.3-0.5,2.4-1.5,3.3c-1.1,0.9-2.1,1.1-3.5,1.1H38
		V70.2z M39.7,78.2c1.1,0,2-0.2,2.8-0.9c0.7-0.7,1.1-1.6,1.1-2.6c0-1-0.4-2-1.2-2.7c-0.8-0.7-1.7-0.9-2.8-0.9H39v7.1H39.7z"/>
	<path class="st0" d="M46.5,76.5c0,1,0.7,1.9,1.8,1.9c0.8,0,1.3-0.5,1.7-1.1l0.8,0.5c-0.5,1-1.4,1.6-2.6,1.6c-1.7,0-2.7-1.3-2.7-2.9
		c0-1.6,1-3,2.7-3c1.8,0,2.7,1.5,2.6,3.1H46.5z M49.8,75.7c-0.1-0.8-0.8-1.5-1.6-1.5c-0.8,0-1.6,0.7-1.7,1.5H49.8z"/>
	<path class="st0" d="M53,74.4L53,74.4c0.5-0.6,1.2-0.9,1.9-0.9c1.6,0,2.7,1.4,2.7,2.9c0,1.6-1,2.9-2.7,2.9c-0.8,0-1.5-0.3-1.9-0.9
		h0v3.9h-0.9v-8.7H53V74.4z M53,76.3c0,1.1,0.6,2.1,1.8,2.1c1.2,0,1.9-1,1.9-2.1c0-1.1-0.7-2-1.9-2C53.7,74.3,53,75.2,53,76.3z"/>
	<path class="st0" d="M64,79.1h-0.9v-0.8h0c-0.5,0.6-1.1,0.9-1.9,0.9c-1.6,0-2.7-1.4-2.7-2.9c0-1.6,1-2.9,2.7-2.9
		c0.8,0,1.4,0.4,1.9,0.9h0v-0.8H64V79.1z M59.5,76.3c0,1.1,0.6,2.1,1.8,2.1c1.2,0,1.9-1,1.9-2.1c0-1.1-0.7-2-1.9-2
		C60.2,74.3,59.5,75.2,59.5,76.3z"/>
	<path class="st0" d="M66.7,74.2L66.7,74.2c0.4-0.4,0.6-0.8,1.3-0.8c0.3,0,0.6,0.1,0.9,0.3l-0.4,0.9c-0.2-0.1-0.3-0.2-0.6-0.2
		c-1,0-1.1,1.3-1.1,2.1v2.8h-0.9v-5.6h0.9V74.2z"/>
	<path class="st0" d="M71,79.1H70v-4.7h-0.6v-0.9H70v-2H71v2h1v0.9h-1V79.1z"/>
	<path class="st0" d="M73.8,74.2L73.8,74.2c0.3-0.5,0.8-0.8,1.4-0.8c0.7,0,1.2,0.3,1.5,0.9c0.3-0.6,1-0.9,1.7-0.9
		c1.4,0,1.8,1.2,1.8,2.3v3.4h-0.9v-3.2c0-0.7,0-1.6-1-1.6c-1.1,0-1.2,1.1-1.2,1.9v2.9H76V76c0-0.7-0.1-1.7-1-1.7
		c-1.1,0-1.2,1.1-1.2,2v2.9h-0.9v-5.6h0.9V74.2z"/>
	<path class="st0" d="M82.4,76.5c0,1,0.7,1.9,1.8,1.9c0.8,0,1.3-0.5,1.7-1.1l0.8,0.5c-0.5,1-1.4,1.6-2.6,1.6c-1.7,0-2.7-1.3-2.7-2.9
		c0-1.6,1-3,2.7-3c1.8,0,2.7,1.5,2.6,3.1H82.4z M85.7,75.7c-0.1-0.8-0.8-1.5-1.6-1.5c-0.8,0-1.6,0.7-1.7,1.5H85.7z"/>
	<path class="st0" d="M89,74.2L89,74.2c0.4-0.5,0.9-0.8,1.6-0.8c1.5,0,1.9,1.1,1.9,2.4v3.3h-0.9V76c0-0.9-0.1-1.7-1.2-1.7
		c-1.3,0-1.4,1.2-1.4,2.2v2.6H88v-5.6H89V74.2z"/>
	<path class="st0" d="M95.3,79.1h-0.9v-4.7h-0.6v-0.9h0.6v-2h0.9v2h1v0.9h-1V79.1z"/>
	<path class="st0" d="M100.3,76.4c0-1.6,1.3-2.9,2.9-2.9c1.6,0,2.9,1.3,2.9,2.9c0,1.6-1.3,2.9-2.9,2.9
		C101.6,79.3,100.3,78,100.3,76.4z M101.2,76.3c0,1.1,0.8,2.1,2,2.1c1.2,0,2-0.9,2-2.1c0-1.1-0.8-2.1-2-2.1
		C102,74.3,101.2,75.2,101.2,76.3z"/>
	<path class="st0" d="M108.4,79.1h-0.9v-4.7H107v-0.9h0.5v-2.2c0-0.5,0-1,0.2-1.4c0.3-0.5,0.9-0.7,1.4-0.7c0.2,0,0.4,0,0.7,0.1v1
		c-0.2-0.1-0.4-0.1-0.6-0.1c-0.8,0-0.8,0.5-0.8,1.5v1.9h1.4v0.9h-1.4V79.1z"/>
	<path class="st0" d="M121.1,72.2c-0.7-0.7-1.7-1.2-2.7-1.2c-2,0-3.6,1.7-3.6,3.7c0,2,1.6,3.7,3.6,3.7c1,0,2-0.5,2.7-1.2v1.2
		c-0.8,0.6-1.7,0.9-2.7,0.9c-2.5,0-4.6-2-4.6-4.6c0-2.6,2.1-4.6,4.6-4.6c1,0,1.9,0.3,2.7,0.9V72.2z"/>
	<path class="st0" d="M122.3,76.4c0-1.6,1.3-2.9,2.9-2.9c1.6,0,2.9,1.3,2.9,2.9c0,1.6-1.3,2.9-2.9,2.9S122.3,78,122.3,76.4z
		 M123.2,76.3c0,1.1,0.8,2.1,2,2.1s2-0.9,2-2.1c0-1.1-0.8-2.1-2-2.1S123.2,75.2,123.2,76.3z"/>
	<path class="st0" d="M130.4,74.2L130.4,74.2c0.3-0.5,0.8-0.8,1.4-0.8c0.7,0,1.2,0.3,1.5,0.9c0.3-0.6,1-0.9,1.7-0.9
		c1.4,0,1.8,1.2,1.8,2.3v3.4h-0.9v-3.2c0-0.7,0-1.6-1-1.6c-1.1,0-1.2,1.1-1.2,1.9v2.9h-0.9V76c0-0.7-0.1-1.7-1-1.7
		c-1.1,0-1.2,1.1-1.2,2v2.9h-0.9v-5.6h0.9V74.2z"/>
	<path class="st0" d="M139.4,74.2L139.4,74.2c0.3-0.5,0.8-0.8,1.4-0.8c0.6,0,1.2,0.3,1.5,0.9c0.3-0.6,1-0.9,1.7-0.9
		c1.4,0,1.8,1.2,1.8,2.3v3.4h-0.9v-3.2c0-0.7,0-1.6-1-1.6c-1.1,0-1.2,1.1-1.2,1.9v2.9h-0.9V76c0-0.7-0.1-1.7-1-1.7
		c-1.1,0-1.2,1.1-1.2,2v2.9h-0.9v-5.6h0.9V74.2z"/>
	<path class="st0" d="M148,76.5c0,1,0.7,1.9,1.8,1.9c0.8,0,1.3-0.5,1.7-1.1l0.8,0.5c-0.5,1-1.4,1.6-2.6,1.6c-1.7,0-2.7-1.3-2.7-2.9
		c0-1.6,1-3,2.7-3c1.8,0,2.7,1.5,2.6,3.1H148z M151.4,75.7c-0.1-0.8-0.8-1.5-1.6-1.5c-0.8,0-1.6,0.7-1.7,1.5H151.4z"/>
	<path class="st0" d="M154.6,74.2L154.6,74.2c0.4-0.4,0.6-0.8,1.3-0.8c0.3,0,0.6,0.1,0.9,0.3l-0.4,0.9c-0.2-0.1-0.3-0.2-0.6-0.2
		c-1,0-1.1,1.3-1.1,2.1v2.8h-0.9v-5.6h0.9V74.2z"/>
	<path class="st0" d="M161.8,75.2L161.8,75.2c-0.5-0.6-1-0.9-1.8-0.9c-1.1,0-2,0.9-2,2.1c0,1.1,0.8,2.1,1.9,2.1c0.8,0,1.3-0.4,1.8-1
		h0v1.3c-0.5,0.4-1.1,0.6-1.8,0.6c-1.7,0-3-1.3-3-2.9c0-1.7,1.3-2.9,3-2.9c0.6,0,1.2,0.2,1.7,0.6V75.2z"/>
	<path class="st0" d="M163.8,76.5c0,1,0.7,1.9,1.8,1.9c0.8,0,1.3-0.5,1.7-1.1l0.8,0.5c-0.5,1-1.4,1.6-2.6,1.6
		c-1.7,0-2.7-1.3-2.7-2.9c0-1.6,1-3,2.7-3c1.8,0,2.7,1.5,2.6,3.1H163.8z M167.1,75.7c-0.1-0.8-0.8-1.5-1.6-1.5
		c-0.8,0-1.6,0.7-1.7,1.5H167.1z"/>
</g>
<g>
	<g>
		<path class="st0" d="M50.8,34.7h-5.2V14.6c0,0,0-3.8,3.8-5.1c3.4-1.1,5.7,1.1,5.7,1.1l17.2,18.6c0.9,0.5,1.2,0,1.2-0.5V9.6h5.3v20
			c0,1.7-1.4,3.8-3.4,4.6c-2,0.8-4.3,0.8-6.9-1.4L52.4,15.2c-0.4-0.5-1.5-0.5-1.5,0.4V34.7L50.8,34.7z"/>
		<path class="st0" d="M82.2,9.6h5.3v18c0,1.9,1.6,1.9,3.2,1.9h23.3c1,0,2.1-1.2,2.1-2.3c0-1.2-1.1-2.4-2.2-2.4H98.7
			c-2.6,0.1-8-2.3-8.1-7.4c0-6.2,5.1-7.6,7.5-7.8h43v5.3h-10.8v19.9h-5.2V14.9H98.8c-2.5-0.2-4.3,4.1-0.2,4.7h16.2
			c2.4,0,6.4,2.1,6.5,7.3c0,5.3-3.1,7.8-6.5,7.8H90.9c-3.9,0-5.4-0.9-6.8-2.2c-1.3-1.3-1.5-2-1.9-4.6V9.6L82.2,9.6z"/>
	</g>
</g>
</svg>
